<svg version="1.1" xmlns="http://www.w3.org/2000/svg" xmlns:xlink="http://www.w3.org/1999/xlink" x="0px" y="0px"
	 viewBox="0 0 485 485" style="enable-background:new 0 0 485 485;" xml:space="preserve">
<g>
	<g>
			<path d="M464.2,404.1c-12.1-7.9-21.4-18.9-27.9-32.8c31.5-37,48.7-82.4,48.7-128.8c0-57.6-25.5-111.6-71.7-152.1
			c-45.7-40.1-106.4-62.2-170.8-62.2S117.4,50.3,71.7,90.4C25.5,130.9,0,184.9,0,242.5s25.5,111.6,71.7,152.1
			c45.7,40.1,106.4,62.2,170.8,62.2c44,0,86.8-10.5,124.3-30.3c19.6,10.2,41.9,15.4,66.2,15.4c7.7,0,15.5-0.5,23.2-1.6
			c8.2-1.1,14.7-7.1,16.5-15.1C474.6,417,471.2,408.7,464.2,404.1z M433.1,414.8c-22.3,0-42.2-5.2-59.2-15.4
			c-4.2-2.5-9.4-2.6-13.6-0.2c-35.1,19.9-75.8,30.5-117.7,30.5c-118.8,0-215.5-84-215.5-187.3S123.8,55.1,242.6,55.1
			s215.5,84,215.5,187.3c0,43-16.4,83.5-47.3,117c-3.4,3.7-4.5,9.1-2.7,13.8c6.1,16.5,15,30.3,26.6,41.5
			C434,414.8,433.5,414.8,433.1,414.8z"/>
	</g>
</g>
</svg>
